<svg xmlns="http://www.w3.org/2000/svg" version="1.1" xmlns:xlink="http://www.w3.org/1999/xlink" xmlns:svgjs="http://svgjs.dev/svgjs" width="1000" height="133" viewBox="0 0 1000 133"><g transform="matrix(1,0,0,1,-0.6060606042969425,0.4052593412135366)"><svg viewBox="0 0 396 53" data-background-color="#ffffff" preserveAspectRatio="xMidYMid meet" height="133" width="1000" xmlns="http://www.w3.org/2000/svg" xmlns:xlink="http://www.w3.org/1999/xlink"><g id="tight-bounds" transform="matrix(1,0,0,1,0.24000000069838734,-0.16149432394223595)"><svg viewBox="0 0 395.52 53.32298864788446" height="53.32298864788446" width="395.52"><g><svg viewBox="0 0 450.4126451018968 60.723473810760666" height="53.32298864788446" width="395.52"><g><rect width="5.448861228735692" height="60.723473810760666" x="35.179749242963034" y="0" fill="#89939e" opacity="1" stroke-width="0" stroke="transparent" fill-opacity="1" class="rect-o-0" data-fill-palette-color="primary" rx="1%" id="o-0" data-palette-color="#89939e"></rect></g><g transform="matrix(1,0,0,1,54.892645101896875,0.15105341743970158)"><svg viewBox="0 0 395.52 60.42136697588126" height="60.42136697588126" width="395.52"><g id="textblocktransform"><svg viewBox="0 0 395.52 60.42136697588126" height="60.42136697588126" width="395.52" id="textblock"><g><svg viewBox="0 0 395.52 60.42136697588126" height="60.42136697588126" width="395.52"><g transform="matrix(1,0,0,1,0,0)"><svg width="395.52" viewBox="0.8300000429153442 -36.04151153564453 239.24000549316406 36.551509857177734" height="60.42136697588126" data-palette-color="#89939e"><path d="M22.73 0L15.43 0 4-30.86 0.83-31.25 0.83-35.55 14.97-35.55 14.97-31.25 11.77-30.76 18.75-9.79 19.29-7.84 19.43-7.84 19.95-9.74 26.93-30.76 23.19-31.25 23.19-35.55 36.67-35.55 36.67-31.25 33.45-30.86 22.73 0ZM45.21 0L33.1 0 33.1-4.27 35.64-4.64 46.95-35.55 54.25-35.55 65.48-4.64 68.02-4.27 68.02 0 55.91 0 55.91-4.27 58.37-4.71 56.81-9.59 44.31-9.59 42.75-4.71 45.21-4.27 45.21 0ZM50.12-26.95L45.99-14.84 55.12-14.84 50.97-27.03 50.63-28.1 50.49-28.1 50.12-26.95ZM85.08 0L70.38 0 70.38-4.27 74.16-5 74.16-30.52 70.38-31.25 70.38-35.55 85.08-35.55 85.08-31.25 81.29-30.52 81.29-5 85.08-4.27 85.08 0ZM102.31 0.51L102.31 0.51Q98.38 0.51 95.16-0.37 91.94-1.25 88.81-3.42L88.81-3.42 88.81-12.01 94.33-12.01 95.09-6.96Q96.18-6.03 98.11-5.46 100.04-4.88 102.31-4.88L102.31-4.88Q104.24-4.88 105.57-5.42 106.9-5.96 107.6-6.95 108.29-7.93 108.29-9.28L108.29-9.28Q108.29-10.55 107.67-11.54 107.05-12.52 105.62-13.34 104.19-14.16 101.75-14.92L101.75-14.92Q97.53-16.16 94.76-17.64 91.98-19.12 90.61-21.18 89.23-23.24 89.23-26.15L89.23-26.15Q89.23-29.03 90.83-31.24 92.42-33.45 95.26-34.72 98.09-35.99 101.8-36.04L101.8-36.04Q105.9-36.08 109.06-35.06 112.22-34.03 114.52-32.2L114.52-32.2 114.52-24.19 109.17-24.19 108.24-29.08Q107.32-29.66 105.74-30.1 104.17-30.54 102.17-30.54L102.17-30.54Q100.46-30.54 99.15-30.03 97.84-29.52 97.09-28.54 96.33-27.56 96.33-26.17L96.33-26.17Q96.33-24.98 96.99-24.08 97.65-23.19 99.2-22.4 100.75-21.61 103.48-20.7L103.48-20.7Q109.37-19.07 112.41-16.38 115.45-13.7 115.45-9.33L115.45-9.33Q115.45-6.3 113.81-4.09 112.18-1.88 109.22-0.68 106.27 0.51 102.31 0.51ZM132.97 0L118.25 0 118.25-4.27 122.04-5 122.04-30.52 118.25-31.25 118.25-35.55 122.04-35.55 132.58-35.55 142.28-10.77 142.42-10.77 151.8-35.55 166.15-35.55 166.15-31.25 162.34-30.52 162.34-5 166.15-4.27 166.15 0 151.43 0 151.43-4.27 155.41-5 155.41-11.82 155.53-27.86 155.39-27.88 144.77-0.49 139.37-0.49 128.51-27.66 128.36-27.64 128.77-12.55 128.77-5 132.97-4.27 132.97 0ZM178.09 0L165.98 0 165.98-4.27 168.52-4.64 179.82-35.55 187.12-35.55 198.35-4.64 200.89-4.27 200.89 0 188.78 0 188.78-4.27 191.25-4.71 189.68-9.59 177.18-9.59 175.62-4.71 178.09-4.27 178.09 0ZM183-26.95L178.87-14.84 188-14.84 183.85-27.03 183.51-28.1 183.36-28.1 183-26.95ZM217.98 0L203.26 0 203.26-4.27 207.04-5 207.04-30.52 203.26-31.25 203.26-35.55 207.04-35.55 214.27-35.55 229.75-10.89 229.89-10.91 229.89-30.52 225.35-31.25 225.35-35.55 236.26-35.55 240.07-35.55 240.07-31.25 236.26-30.52 236.26 0 229.38 0 213.56-24.41 213.41-24.39 213.41-5 217.98-4.27 217.98 0Z" opacity="1" transform="matrix(1,0,0,1,0,0)" fill="#89939e" class="undefined-text-0" data-fill-palette-color="primary" id="text-0"></path></svg></g></svg></g></svg></g></svg></g><g transform="matrix(1,0,0,1,0,0.15105341743970158)"><svg viewBox="0 0 20.915714612764887 60.42136697588126" height="60.42136697588126" width="20.915714612764887"><g><svg xmlns="http://www.w3.org/2000/svg" xmlns:xlink="http://www.w3.org/1999/xlink" version="1.1" x="0" y="0" viewBox="0.0003785081207752228 0 34.61642074584961 100" enable-background="new 0 0 34.616 100" xml:space="preserve" width="20.915714612764887" height="60.42136697588126" class="icon-icon-0" data-fill-palette-color="accent" id="icon-0"><path d="M17.321 0c-4.701 0-8.509 3.802-8.509 8.502 0 4.688 3.809 8.49 8.509 8.49 4.681 0 8.483-3.802 8.483-8.49C25.805 3.802 22.002 0 17.321 0z" fill="#89939e" data-fill-palette-color="accent"></path><path d="M31.364 25.82c-2.083-4.258-5.312-6.849-13.242-6.849h-0.814-0.813c-7.93 0-11.159 2.591-13.242 6.849C2.21 27.949 0.017 54.583 0.017 54.583c-0.169 1.576 0.97 2.982 2.539 3.139 0.104 0.013 0.202 0.013 0.306 0.013 1.445 0 2.688-1.087 2.832-2.552l2.239-23.145 0.554 17.969L6.853 96.438c-0.117 1.83 1.263 3.432 3.092 3.549C10.042 100 10.114 100 10.179 100c1.745 0 3.216-1.341 3.347-3.099l3.782-38.242 3.783 38.242c0.13 1.758 1.602 3.099 3.347 3.099 0.064 0 0.137 0 0.234-0.013 1.829-0.117 3.209-1.719 3.092-3.549L26.13 50.006l0.554-17.969 2.239 23.145c0.144 1.465 1.387 2.552 2.832 2.552 0.104 0 0.202 0 0.306-0.013 1.569-0.156 2.709-1.562 2.539-3.139C34.6 54.583 32.406 27.949 31.364 25.82z" fill="#89939e" data-fill-palette-color="accent"></path></svg></g></svg></g></svg></g><defs></defs></svg><rect width="395.52" height="53.32298864788446" fill="none" stroke="none" visibility="hidden"></rect></g></svg></g></svg>